# xmcd CD database file
#
# Track frame offsets:
#	150
#	21447
#	37545
#	73087
#	82379
#	107950
#	130368
#	151482
#	174500
#
# Disc length: 2735 seconds
#
# Revision: 0
# Processed by: cddbd v1.5PL3 Copyright (c) Steve Scherf et al.
# Submitted via: CDex 1.51
#
DISCID=790aad09
DTITLE=Serenity - Smooth Jazz CD2
DYEAR=2003
DGENRE=Jazz
TTITLE0=Kenni G Songbird
TTITLE1=Planet Hope
TTITLE2=Soul Serenade
TTITLE3=Heart of Gold
TTITLE4=NYC Strut
TTITLE5=Latin Smoothie
TTITLE6=Duet with Sax and Piano
TTITLE7=You're the One
TTITLE8=Evening Shade
EXTD=YEAR: 2003
EXTT0=
EXTT1=
EXTT2=
EXTT3=
EXTT4=
EXTT5=
EXTT6=
EXTT7=
EXTT8=
PLAYORDER=
